<svg height="512pt" viewBox="0 -26 512 512" width="512pt" xmlns="http://www.w3.org/2000/svg"><path d="m422.261719 0h-331.453125c-50.070313 0-90.808594 40.648438-90.808594 90.609375v338.859375c0 12.011719 7.28125 22.972656 18.558594 27.921875 3.980468 1.757813 8.203125 2.609375 12.390625 2.609375 7.511719 0 14.902343-2.738281 20.628906-7.949219 41.550781-37.589843 95.320313-58.289062 151.421875-58.289062h53.710938l165.609374.019531c49.449219 0 89.679688-40.320312 89.679688-89.882812v-214.359376c0-49.367187-40.261719-89.539062-89.738281-89.539062zm0 0" fill="#ff6426"/><path d="m512 89.539062v214.359376c0 49.5625-40.230469 89.882812-89.679688 89.882812l-160.609374-.019531v-393.761719h160.550781c49.476562 0 89.738281 40.171875 89.738281 89.539062zm0 0" fill="#ef4243"/><path d="m202.46875 157.136719h38.933594c8.285156 0 15-6.714844 15-15 0-8.285157-6.714844-15-15-15h-38.933594c-18.242188 0-33.082031 14.839843-33.082031 33.082031v80.855469c0 18.242187 14.839843 33.082031 33.082031 33.082031h38.933594c8.285156 0 15-6.714844 15-15s-6.714844-15-15-15h-38.933594c-1.699219 0-3.082031-1.382812-3.082031-3.082031v-25.425781h42.015625c8.285156 0 15-6.71875 15-15 0-8.285157-6.714844-15-15-15h-42.015625v-25.429688c0-1.699219 1.382812-3.082031 3.082031-3.082031zm0 0" fill="#fff"/><path d="m336.613281 244.15625h-27.132812c-2.695313 0-4.886719-2.191406-4.886719-4.886719v-97.132812c0-8.285157-6.714844-15-15-15s-15 6.714843-15 15v97.132812c0 19.238281 15.648438 34.886719 34.886719 34.886719h27.132812c8.28125 0 15-6.714844 15-15s-6.714843-15-15-15zm0 0" fill="#fff5ea"/><path d="m136.195312 127.136719c-8.28125 0-15 6.714843-15 15v43.511719h-27.015624v-43.511719c0-8.285157-6.71875-15-15-15-8.285157 0-15 6.714843-15 15v117.019531c0 8.285156 6.714843 15 15 15 8.28125 0 15-6.714844 15-15v-43.507812h27.015624v43.507812c0 8.285156 6.71875 15 15 15 8.285157 0 15-6.714844 15-15v-117.019531c0-8.285157-6.714843-15-15-15zm0 0" fill="#fff"/><path d="m408.308594 127.136719h-21.933594c-11.898438 0-21.574219 9.679687-21.574219 21.574219v110.445312c0 8.285156 6.714844 15 15 15 8.285157 0 15-6.714844 15-15v-45h13.507813c23.992187 0 43.511718-19.519531 43.511718-43.507812 0-23.992188-19.519531-43.511719-43.511718-43.511719zm0 57.019531h-13.507813v-27.019531h13.507813c7.449218 0 13.511718 6.0625 13.511718 13.511719 0 7.449218-6.0625 13.507812-13.511718 13.507812zm0 0" fill="#fff5ea"/></svg>